<svg width="30" height="30" viewBox="0 0 30 30" fill="none" xmlns="http://www.w3.org/2000/svg">
<g clip-path="url(#clip0_565_3640)">
<path d="M28.8965 12.3496L22.709 6.16211L20.0577 8.81336L24.3752 13.1259H8.27148V16.8759H24.3752L20.0627 21.1884L22.714 23.8396L28.9015 17.6521C29.6038 16.9482 29.9979 15.9942 29.9969 14.9998C29.996 14.0055 29.6002 13.0522 28.8965 12.3496Z" fill="#2C2A29"/>
<path d="M12.4928 25.6253C12.4928 25.7911 12.427 25.95 12.3098 26.0673C12.1925 26.1845 12.0336 26.2503 11.8678 26.2503H4.38281C4.21705 26.2503 4.05808 26.1845 3.94087 26.0673C3.82366 25.95 3.75781 25.7911 3.75781 25.6253V4.41406C3.75781 4.2483 3.82366 4.08933 3.94087 3.97212C4.05808 3.85491 4.21705 3.78906 4.38281 3.78906H11.8678C12.0336 3.78906 12.1925 3.85491 12.3098 3.97212C12.427 4.08933 12.4928 4.2483 12.4928 4.41406V10.4316H16.2428V4.41406C16.2412 3.25425 15.7797 2.14241 14.9596 1.3223C14.1395 0.502183 13.0276 0.0407158 11.8678 0.0390625H4.38281C3.223 0.0407158 2.11116 0.502183 1.29105 1.3223C0.470933 2.14241 0.00946584 3.25425 0.0078125 4.41406V25.6253C0.0078125 26.7856 0.468749 27.8984 1.28922 28.7189C2.10969 29.5394 3.22249 30.0003 4.38281 30.0003H11.8678C13.0281 30.0003 14.1409 29.5394 14.9614 28.7189C15.7819 27.8984 16.2428 26.7856 16.2428 25.6253V19.6041H12.4928V25.6253Z" fill="#2C2A29"/>
</g>
<defs>
<clipPath id="clip0_565_3640">
<rect width="30" height="30" fill="white"/>
</clipPath>
</defs>
</svg>
